<svg xmlns="http://www.w3.org/2000/svg" viewBox="0 0 512 512" width="512" height="512">
  <rect width="512" height="512" rx="100" fill="#1E40AF"/>
  <g transform="translate(80, 100)">
    <!-- Bus body -->
    <rect x="20" y="40" width="310" height="200" rx="20" fill="white"/>
    <!-- Roof -->
    <rect x="30" y="30" width="290" height="30" rx="10" fill="#059669"/>
    <!-- Windows -->
    <rect x="50" y="80" width="60" height="60" rx="8" fill="#dbeafe" stroke="#1E40AF" stroke-width="3"/>
    <rect x="130" y="80" width="60" height="60" rx="8" fill="#dbeafe" stroke="#1E40AF" stroke-width="3"/>
    <rect x="210" y="80" width="60" height="60" rx="8" fill="#dbeafe" stroke="#1E40AF" stroke-width="3"/>
    <!-- Door -->
    <rect x="290" y="90" width="30" height="100" rx="5" fill="#059669" stroke="#047857" stroke-width="2"/>
    <!-- Headlight -->
    <circle cx="320" cy="200" r="15" fill="#059669"/>
    <!-- Tail light -->
    <circle cx="30" cy="200" r="12" fill="#ef4444"/>
    <!-- Wheels -->
    <circle cx="100" cy="260" r="30" fill="#374151"/>
    <circle cx="100" cy="260" r="15" fill="#9ca3af"/>
    <circle cx="260" cy="260" r="30" fill="#374151"/>
    <circle cx="260" cy="260" r="15" fill="#9ca3af"/>
    <!-- Bumper -->
    <rect x="10" y="230" width="330" height="10" rx="5" fill="#d1d5db"/>
  </g>
</svg>
